<svg width="902" height="192" viewBox="0 0 902 192" fill="none" xmlns="http://www.w3.org/2000/svg">
<path d="M117.917 65.7517C117.917 60.3615 116.224 55.1074 113.078 50.731L84.038 10.3441C81.3026 6.53983 75.2968 8.47488 75.2968 13.1604V178.84C75.2968 183.525 81.3026 185.46 84.038 181.656L113.078 141.269C116.224 136.893 117.917 131.639 117.917 126.248V65.7517Z" fill="#111214"/>
<path d="M64.6417 47.696C64.6417 38.4172 59.6458 29.8572 51.5669 25.2935L7.90808 0.630916C4.69207 -1.18578 0.710938 1.13772 0.710938 4.83138V187.169C0.710938 190.862 4.69207 193.186 7.90808 191.369L51.5669 166.706C59.6458 162.143 64.6417 153.583 64.6417 144.304V47.696Z" fill="#111214"/>
<path d="M181.731 65.7517C181.731 60.3615 183.424 55.1074 186.57 50.731L215.61 10.3441C218.345 6.53983 224.351 8.47488 224.351 13.1604V178.84C224.351 183.525 218.345 185.46 215.61 181.656L186.57 141.269C183.424 136.893 181.731 131.639 181.731 126.248V65.7517Z" fill="#111214"/>
<path d="M235.006 47.696C235.006 38.4172 240.002 29.8572 248.081 25.2935L291.74 0.630916C294.956 -1.18578 298.937 1.13772 298.937 4.83138V187.169C298.937 190.862 294.956 193.186 291.74 191.369L248.081 166.706C240.002 162.143 235.006 153.583 235.006 144.304V47.696Z" fill="#111214"/>
<path d="M128.572 19.0308V172.969C128.572 176.574 133.593 177.45 134.815 174.059L149.634 132.908C149.76 132.558 149.824 132.19 149.824 131.818C149.824 132.19 149.888 132.558 150.014 132.908L164.833 174.059C166.055 177.45 171.076 176.574 171.076 172.969V19.0308C171.076 15.4263 166.055 14.5498 164.833 17.9411L150.014 59.0922C149.888 59.4417 149.824 59.8104 149.824 60.1819C149.824 59.8104 149.76 59.4417 149.634 59.0922L134.815 17.9411C133.593 14.5498 128.572 15.4263 128.572 19.0308Z" fill="#111214"/>
<path d="M846.038 15.9006C846.038 13.6914 847.829 11.9006 850.038 11.9006H863.818C866.028 11.9006 867.818 13.6914 867.818 15.9006V43.3778C867.818 45.5869 869.609 47.3778 871.818 47.3778H897.275C899.484 47.3778 901.275 49.1687 901.275 51.3778V62.2391C901.275 64.4483 899.484 66.2391 897.275 66.2391H871.818C869.609 66.2391 867.818 68.03 867.818 70.2391V122.823C867.818 134.948 874.555 141.684 885.332 141.684H897.275C899.484 141.684 901.275 143.475 901.275 145.684V156.546C901.275 158.755 899.484 160.546 897.275 160.546H883.761C860.858 160.546 846.038 146.624 846.038 123.497V70.2391C846.038 68.03 844.247 66.2391 842.038 66.2391H826.91C824.701 66.2391 822.91 64.4483 822.91 62.2391V51.3778C822.91 49.1687 824.701 47.3778 826.91 47.3778H842.038C844.247 47.3778 846.038 45.5869 846.038 43.3778V15.9006Z" fill="#111214"/>
<path d="M774.684 162.342C739.206 162.342 718.773 135.173 718.773 103.962C718.773 72.7507 739.206 45.5815 774.684 45.5815C799.605 45.5815 821.348 59.4872 826.46 82.4405C826.982 84.7856 825.107 86.8967 822.705 86.8967H808.864C806.895 86.8967 805.256 85.4487 804.659 83.5732C801.132 72.4985 789.251 64.6673 775.133 64.6673C752.679 64.6673 741.452 82.1814 741.452 103.962C741.452 125.742 752.903 143.256 775.357 143.256C789.656 143.256 800.321 136.371 804.705 125.248C805.362 123.58 806.909 122.374 808.702 122.374H822.577C825.024 122.374 826.91 124.559 826.315 126.933C820.987 148.216 801.759 162.342 774.684 162.342Z" fill="#111214"/>
<path d="M688.485 4C688.485 1.79086 690.276 0 692.485 0H706.265C708.475 0 710.265 1.79086 710.265 4V156.546C710.265 158.755 708.475 160.546 706.265 160.546H692.485C690.276 160.546 688.485 158.755 688.485 156.546V70.2391C688.485 68.03 686.694 66.2391 684.485 66.2391H646.005C643.796 66.2391 642.005 68.03 642.005 70.2391V156.546C642.005 158.755 640.215 160.546 638.005 160.546H624.225C622.016 160.546 620.225 158.755 620.225 156.546V70.2391C620.225 68.03 618.434 66.2391 616.225 66.2391H601.098C598.888 66.2391 597.098 64.4483 597.098 62.2391V51.3778C597.098 49.1687 598.888 47.3778 601.098 47.3778H616.225C618.434 47.3778 620.225 45.5869 620.225 43.3778V36.3754C620.225 14.146 634.82 0 657.499 0H666.971C669.18 0 670.971 1.79086 670.971 4V14.8613C670.971 17.0704 669.18 18.8613 666.971 18.8613H659.295C648.742 18.8613 642.005 25.822 642.005 37.049V43.3778C642.005 45.5869 643.796 47.3778 646.005 47.3778H684.485C686.694 47.3778 688.485 45.5869 688.485 43.3778V4Z" fill="#111214"/>
<path d="M543.722 162.342C508.694 162.342 486.914 134.724 486.914 103.288C486.914 71.6281 506.673 45.5815 541.477 45.5815C576.505 45.5815 595.142 70.5053 595.142 99.2464C595.142 100.823 595.076 102.595 594.981 104.211C594.86 106.246 593.151 107.779 591.112 107.779H512.596C510.254 107.779 508.398 109.789 508.788 112.097C511.991 131.056 525.327 143.705 543.722 143.705C558.991 143.705 569.33 137.638 573.346 126.722C573.981 124.994 575.554 123.721 577.396 123.721H591.288C593.77 123.721 595.664 125.967 594.995 128.357C589.194 149.073 569.678 162.342 543.722 162.342ZM509.965 87.1727C509.307 89.5747 511.206 91.8366 513.696 91.8366H568.813C571.145 91.8366 573.004 89.8402 572.57 87.5494C569.75 72.6795 558.526 63.0956 541.477 63.0956C525.263 63.0956 514.302 71.3499 509.965 87.1727Z" fill="#111214"/>
<path d="M372.827 160.546C370.618 160.546 368.827 158.755 368.827 156.546V7.36844C368.827 5.1593 370.618 3.36844 372.827 3.36844H430.351C462.011 3.36844 481.321 22.4543 481.321 50.5217C481.321 64.65 474.842 75.1434 464.534 82.2671C461.925 84.0705 461.767 88.2158 464.143 90.3179C472.174 97.4252 477.222 107.922 477.953 120.353L480.759 156.234C480.941 158.559 479.104 160.546 476.772 160.546H462.102C460.021 160.546 458.287 158.949 458.116 156.874L455.275 122.374C454.152 108.453 444.946 98.5731 431.474 98.5731H396.179C393.97 98.5731 392.179 100.364 392.179 102.573V156.546C392.179 158.755 390.388 160.546 388.179 160.546H372.827ZM392.179 73.9155C392.179 76.1246 393.97 77.9155 396.179 77.9155H429.677C450.11 77.9155 457.969 64.6677 457.969 50.5217C457.969 36.1512 450.11 23.577 429.677 23.577H396.179C393.97 23.577 392.179 25.3678 392.179 27.577V73.9155Z" fill="#111214"/>
<path d="M890.394 22.618C890.118 22.618 889.894 22.3941 889.894 22.118V12.4556C889.894 12.1794 890.118 11.9556 890.394 11.9556H892.52C892.724 11.9556 892.908 12.0796 892.984 12.269L895.165 17.6925C895.333 18.1103 895.925 18.1104 896.093 17.6925L898.275 12.269C898.351 12.0796 898.534 11.9556 898.738 11.9556H900.787C901.064 11.9556 901.287 12.1794 901.287 12.4556V22.118C901.287 22.3941 901.064 22.618 900.787 22.618H899.324C899.048 22.618 898.824 22.3941 898.824 22.118V19.418C898.824 18.8668 898.063 18.7211 897.859 19.2333L896.64 22.3026C896.564 22.493 896.38 22.618 896.175 22.618H895.045C894.84 22.618 894.656 22.493 894.58 22.3026L893.36 19.2333C893.157 18.7211 892.396 18.8668 892.396 19.418V22.118C892.396 22.3941 892.172 22.618 891.896 22.618H890.394ZM880.155 14.3036C879.879 14.3036 879.655 14.0798 879.655 13.8036V12.4556C879.655 12.1794 879.879 11.9556 880.155 11.9556H887.97C888.246 11.9556 888.47 12.1794 888.47 12.4556V13.8036C888.47 14.0798 888.246 14.3036 887.97 14.3036H885.89C885.614 14.3036 885.39 14.5275 885.39 14.8036V22.118C885.39 22.3941 885.166 22.618 884.89 22.618H883.234C882.958 22.618 882.734 22.3941 882.734 22.118V14.8036C882.734 14.5275 882.51 14.3036 882.234 14.3036H880.155Z" fill="#111214"/>
<path d="M581.018 186.025C583.596 188.191 581.871 192 578.504 192H510.572C507.127 192 505.418 188.036 508.092 185.863C517.387 178.308 529.456 173.727 543.722 173.727C558.804 173.727 571.712 178.207 581.018 186.025Z" fill="#111214"/>
<path d="M812.005 186.028C814.572 188.199 812.843 192 809.481 192H741.432C738.015 192 736.293 188.086 738.922 185.903C748.049 178.321 760.094 173.727 774.684 173.727C790.001 173.727 802.807 178.248 812.005 186.028Z" fill="#111214"/>
<path d="M901.275 188C901.275 190.209 899.484 192 897.275 192H858.105C855.014 192 853.174 188.668 855.289 186.413C861.883 179.382 871.701 175.523 883.761 175.523H897.275C899.484 175.523 901.275 177.314 901.275 179.523V188Z" fill="#111214"/>
<path d="M710.265 188C710.265 190.209 708.475 192 706.265 192H692.485C690.276 192 688.485 190.209 688.485 188V179.523C688.485 177.314 690.276 175.523 692.485 175.523H706.265C708.475 175.523 710.265 177.314 710.265 179.523V188Z" fill="#111214"/>
<path d="M642.005 188C642.005 190.209 640.215 192 638.005 192H624.225C622.016 192 620.225 190.209 620.225 188V179.523C620.225 177.314 622.016 175.523 624.225 175.523H638.005C640.215 175.523 642.005 177.314 642.005 179.523V188Z" fill="#111214"/>
<path d="M481.097 188C481.097 190.209 479.306 192 477.097 192H462.418C460.209 192 458.418 190.209 458.418 188V179.523C458.418 177.313 460.209 175.523 462.418 175.523H477.097C479.306 175.523 481.097 177.313 481.097 179.523V188Z" fill="#111214"/>
<path d="M392.179 188C392.179 190.209 390.388 192 388.179 192H372.827C370.618 192 368.827 190.209 368.827 188V179.523C368.827 177.313 370.618 175.523 372.827 175.523H388.179C390.388 175.523 392.179 177.313 392.179 179.523V188Z" fill="#111214"/>
</svg>
