<svg width="534" height="192" viewBox="0 0 534 192" fill="none" xmlns="http://www.w3.org/2000/svg">
<path d="M478.038 15.9006C478.038 13.6914 479.829 11.9006 482.038 11.9006H495.818C498.028 11.9006 499.818 13.6914 499.818 15.9006V43.3778C499.818 45.5869 501.609 47.3778 503.818 47.3778H529.275C531.484 47.3778 533.275 49.1687 533.275 51.3778V62.2391C533.275 64.4483 531.484 66.2391 529.275 66.2391H503.818C501.609 66.2391 499.818 68.03 499.818 70.2391V122.823C499.818 134.948 506.555 141.684 517.332 141.684H529.275C531.484 141.684 533.275 143.475 533.275 145.684V156.546C533.275 158.755 531.484 160.546 529.275 160.546H515.761C492.858 160.546 478.038 146.624 478.038 123.497V70.2391C478.038 68.03 476.247 66.2391 474.038 66.2391H458.91C456.701 66.2391 454.91 64.4483 454.91 62.2391V51.3778C454.91 49.1687 456.701 47.3778 458.91 47.3778H474.038C476.247 47.3778 478.038 45.5869 478.038 43.3778V15.9006Z" fill="#111214"/>
<path d="M406.684 162.342C371.206 162.342 350.773 135.173 350.773 103.962C350.773 72.7507 371.206 45.5815 406.684 45.5815C431.605 45.5815 453.348 59.4872 458.46 82.4405C458.982 84.7856 457.107 86.8967 454.705 86.8967H440.864C438.895 86.8967 437.256 85.4487 436.659 83.5732C433.132 72.4985 421.251 64.6673 407.133 64.6673C384.679 64.6673 373.452 82.1814 373.452 103.962C373.452 125.742 384.903 143.256 407.357 143.256C421.656 143.256 432.321 136.371 436.705 125.248C437.362 123.58 438.909 122.374 440.702 122.374H454.577C457.024 122.374 458.91 124.559 458.315 126.933C452.987 148.216 433.759 162.342 406.684 162.342Z" fill="#111214"/>
<path d="M320.485 4C320.485 1.79086 322.276 0 324.485 0H338.265C340.475 0 342.265 1.79086 342.265 4V156.546C342.265 158.755 340.475 160.546 338.265 160.546H324.485C322.276 160.546 320.485 158.755 320.485 156.546V70.2391C320.485 68.03 318.694 66.2391 316.485 66.2391H278.005C275.796 66.2391 274.005 68.03 274.005 70.2391V156.546C274.005 158.755 272.215 160.546 270.005 160.546H256.225C254.016 160.546 252.225 158.755 252.225 156.546V70.2391C252.225 68.03 250.434 66.2391 248.225 66.2391H233.098C230.888 66.2391 229.098 64.4483 229.098 62.2391V51.3778C229.098 49.1687 230.888 47.3778 233.098 47.3778H248.225C250.434 47.3778 252.225 45.5869 252.225 43.3778V36.3754C252.225 14.146 266.82 0 289.499 0H298.971C301.18 0 302.971 1.79086 302.971 4V14.8613C302.971 17.0704 301.18 18.8613 298.971 18.8613H291.295C280.742 18.8613 274.005 25.822 274.005 37.049V43.3778C274.005 45.5869 275.796 47.3778 278.005 47.3778H316.485C318.694 47.3778 320.485 45.5869 320.485 43.3778V4Z" fill="#111214"/>
<path d="M175.722 162.342C140.694 162.342 118.914 134.724 118.914 103.288C118.914 71.6281 138.673 45.5815 173.477 45.5815C208.505 45.5815 227.142 70.5053 227.142 99.2464C227.142 100.823 227.076 102.595 226.981 104.211C226.86 106.246 225.151 107.779 223.112 107.779H144.596C142.254 107.779 140.398 109.789 140.788 112.097C143.991 131.056 157.327 143.705 175.722 143.705C190.991 143.705 201.33 137.638 205.346 126.722C205.981 124.994 207.554 123.721 209.396 123.721H223.288C225.77 123.721 227.664 125.967 226.995 128.357C221.194 149.073 201.678 162.342 175.722 162.342ZM141.965 87.1727C141.307 89.5747 143.206 91.8366 145.696 91.8366H200.813C203.145 91.8366 205.004 89.8402 204.57 87.5494C201.75 72.6795 190.526 63.0956 173.477 63.0956C157.263 63.0956 146.302 71.3499 141.965 87.1727Z" fill="#111214"/>
<path d="M4.82702 160.546C2.61788 160.546 0.827026 158.755 0.827026 156.546V7.36844C0.827026 5.1593 2.61789 3.36844 4.82703 3.36844H62.3508C94.0109 3.36844 113.321 22.4543 113.321 50.5217C113.321 64.65 106.842 75.1434 96.5342 82.2671C93.9247 84.0705 93.767 88.2158 96.1425 90.3179C104.174 97.4252 109.222 107.922 109.953 120.353L112.759 156.234C112.941 158.559 111.104 160.546 108.772 160.546H94.1024C92.0205 160.546 90.2867 158.949 90.1159 156.874L87.2747 122.374C86.152 108.453 76.9459 98.5731 63.4735 98.5731H28.1791C25.97 98.5731 24.1791 100.364 24.1791 102.573V156.546C24.1791 158.755 22.3883 160.546 20.1791 160.546H4.82702ZM24.1791 73.9155C24.1791 76.1246 25.97 77.9155 28.1791 77.9155H61.6772C82.1103 77.9155 89.9692 64.6677 89.9692 50.5217C89.9692 36.1512 82.1103 23.577 61.6772 23.577H28.1791C25.97 23.577 24.1791 25.3678 24.1791 27.577V73.9155Z" fill="#111214"/>
<path d="M522.394 22.618C522.118 22.618 521.894 22.3941 521.894 22.118V12.4556C521.894 12.1794 522.118 11.9556 522.394 11.9556H524.52C524.724 11.9556 524.908 12.0796 524.984 12.269L527.165 17.6925C527.333 18.1103 527.925 18.1104 528.093 17.6925L530.275 12.269C530.351 12.0796 530.534 11.9556 530.738 11.9556H532.787C533.064 11.9556 533.287 12.1794 533.287 12.4556V22.118C533.287 22.3941 533.064 22.618 532.787 22.618H531.324C531.048 22.618 530.824 22.3941 530.824 22.118V19.418C530.824 18.8668 530.063 18.7211 529.859 19.2333L528.64 22.3026C528.564 22.493 528.38 22.618 528.175 22.618H527.045C526.84 22.618 526.656 22.493 526.58 22.3026L525.36 19.2333C525.157 18.7211 524.396 18.8668 524.396 19.418V22.118C524.396 22.3941 524.172 22.618 523.896 22.618H522.394ZM512.155 14.3036C511.879 14.3036 511.655 14.0798 511.655 13.8036V12.4556C511.655 12.1794 511.879 11.9556 512.155 11.9556H519.97C520.246 11.9556 520.47 12.1794 520.47 12.4556V13.8036C520.47 14.0798 520.246 14.3036 519.97 14.3036H517.89C517.614 14.3036 517.39 14.5275 517.39 14.8036V22.118C517.39 22.3941 517.166 22.618 516.89 22.618H515.234C514.958 22.618 514.734 22.3941 514.734 22.118V14.8036C514.734 14.5275 514.51 14.3036 514.234 14.3036H512.155Z" fill="#111214"/>
<path d="M213.018 186.025C215.596 188.191 213.871 192 210.504 192H142.572C139.127 192 137.418 188.036 140.092 185.863C149.387 178.308 161.456 173.727 175.722 173.727C190.804 173.727 203.712 178.207 213.018 186.025Z" fill="#111214"/>
<path d="M444.005 186.028C446.572 188.199 444.843 192 441.481 192H373.432C370.015 192 368.293 188.086 370.922 185.903C380.049 178.321 392.094 173.727 406.684 173.727C422.001 173.727 434.807 178.248 444.005 186.028Z" fill="#111214"/>
<path d="M533.275 188C533.275 190.209 531.484 192 529.275 192H490.105C487.014 192 485.174 188.668 487.289 186.413C493.883 179.382 503.701 175.523 515.761 175.523H529.275C531.484 175.523 533.275 177.314 533.275 179.523V188Z" fill="#111214"/>
<path d="M342.265 188C342.265 190.209 340.475 192 338.265 192H324.485C322.276 192 320.485 190.209 320.485 188V179.523C320.485 177.314 322.276 175.523 324.485 175.523H338.265C340.475 175.523 342.265 177.314 342.265 179.523V188Z" fill="#111214"/>
<path d="M274.005 188C274.005 190.209 272.215 192 270.005 192H256.225C254.016 192 252.225 190.209 252.225 188V179.523C252.225 177.314 254.016 175.523 256.225 175.523H270.005C272.215 175.523 274.005 177.314 274.005 179.523V188Z" fill="#111214"/>
<path d="M113.097 188C113.097 190.209 111.306 192 109.097 192H94.4182C92.2091 192 90.4183 190.209 90.4183 188V179.523C90.4183 177.313 92.2091 175.523 94.4183 175.523H109.097C111.306 175.523 113.097 177.313 113.097 179.523V188Z" fill="#111214"/>
<path d="M24.1791 188C24.1791 190.209 22.3883 192 20.1791 192H4.82702C2.61788 192 0.827026 190.209 0.827026 188V179.523C0.827026 177.313 2.61789 175.523 4.82703 175.523H20.1791C22.3883 175.523 24.1791 177.313 24.1791 179.523V188Z" fill="#111214"/>
</svg>
